<?xml version="1.0" standalone="no"?>
<svg viewBox="0 0 200 200" xmlns="http://www.w3.org/2000/svg">
  <path fill="#20443E" d="M36,-59.6C44.1,-57.8,46.3,-42.9,47.7,-30.8C49.2,-18.7,49.9,-9.3,52.8,1.7C55.7,12.7,60.7,25.3,60.2,39C59.6,52.6,53.5,67.2,42.5,69.6C31.5,72,15.8,62.2,0.5,61.3C-14.7,60.4,-29.5,68.5,-41.9,66.9C-54.3,65.3,-64.3,54.2,-70.6,41.4C-76.9,28.6,-79.3,14.3,-76,1.9C-72.6,-10.4,-63.4,-20.9,-56.9,-33.2C-50.4,-45.5,-46.6,-59.8,-37.5,-61.1C-28.5,-62.5,-14.3,-50.8,-0.1,-50.6C14,-50.3,28,-61.5,36,-59.6Z" transform="translate(100 100)" />
</svg>
