<?xml version="1.0" standalone="no"?>
<svg viewBox="0 0 200 200" xmlns="http://www.w3.org/2000/svg">
  <path fill="#20443E" d="M33.1,-55.7C46.5,-49.5,63.5,-48,74.7,-39.5C85.8,-31,91.2,-15.5,87.3,-2.2C83.4,11,70.3,22,60.4,32.7C50.5,43.4,43.8,53.9,34.3,61.1C24.7,68.4,12.4,72.6,-1.1,74.6C-14.6,76.5,-29.3,76.3,-41.3,70.5C-53.3,64.6,-62.7,53.1,-69.1,40.4C-75.5,27.7,-78.9,13.9,-72.7,3.6C-66.5,-6.7,-50.5,-13.3,-43.7,-25.3C-36.9,-37.3,-39.2,-54.5,-33.4,-65.2C-27.7,-75.8,-13.8,-79.8,-2,-76.4C9.8,-72.9,19.6,-62,33.1,-55.7Z" transform="translate(100 100)" />
</svg>
