<?xml version="1.0" standalone="no"?>
<svg viewBox="0 0 200 200" xmlns="http://www.w3.org/2000/svg">
  <path fill="#20443E" d="M35.9,-55.1C48.7,-54.8,62.6,-49.5,70,-39.5C77.4,-29.5,78.1,-14.7,78.5,0.2C78.9,15.2,78.9,30.4,68.7,35.5C58.5,40.6,38.1,35.7,25,34.1C11.9,32.5,5.9,34.3,-2,37.8C-10,41.4,-20,46.7,-30,46.5C-40,46.2,-50,40.4,-55.2,31.8C-60.5,23.1,-60.9,11.6,-65,-2.4C-69.2,-16.3,-77,-32.6,-69.1,-36.7C-61.2,-40.7,-37.6,-32.5,-23.5,-32C-9.3,-31.5,-4.7,-38.8,3.4,-44.8C11.6,-50.7,23.1,-55.4,35.9,-55.1Z" transform="translate(100 100)" />
</svg>
